<?xml version="1.0" encoding="UTF-8" standalone="no"?>
<!-- Created with Inkscape (http://www.inkscape.org/) -->

<svg
   width="48pt"
   height="48pt"
   viewBox="0 0 16.933334 16.933333"
   version="1.1"
   id="svg979"
   inkscape:version="1.1 (c68e22c387, 2021-05-23)"
   sodipodi:docname="23 - Eco Accumulator.svg"
   inkscape:export-filename="E:\TR Design Studio Creative\Project Design\TR Creative Design\Icon Design\Project Hiring\Icon Icons\006 - Ecology\Send\4 - Filled Line\23 - Eco Accumulator.png"
   inkscape:export-xdpi="768"
   inkscape:export-ydpi="768"
   xmlns:inkscape="http://www.inkscape.org/namespaces/inkscape"
   xmlns:sodipodi="http://sodipodi.sourceforge.net/DTD/sodipodi-0.dtd"
   xmlns="http://www.w3.org/2000/svg"
   xmlns:svg="http://www.w3.org/2000/svg"
   xmlns:rdf="http://www.w3.org/1999/02/22-rdf-syntax-ns#"
   xmlns:cc="http://creativecommons.org/ns#"
   xmlns:dc="http://purl.org/dc/elements/1.1/">
  <defs
     id="defs973" />
  <sodipodi:namedview
     id="base"
     pagecolor="#ffffff"
     bordercolor="#666666"
     borderopacity="1.0"
     inkscape:pageopacity="0.0"
     inkscape:pageshadow="2"
     inkscape:zoom="5.4358834"
     inkscape:cx="32.377442"
     inkscape:cy="36.608585"
     inkscape:document-units="pt"
     inkscape:current-layer="layer1"
     showgrid="false"
     units="pt"
     inkscape:window-width="1366"
     inkscape:window-height="716"
     inkscape:window-x="-8"
     inkscape:window-y="-8"
     inkscape:window-maximized="1"
     inkscape:pagecheckerboard="0"
     inkscape:snap-bbox="true"
     inkscape:snap-nodes="false"
     inkscape:bbox-nodes="true"
     showguides="false"
     inkscape:snap-global="false">
    <inkscape:grid
       type="xygrid"
       id="grid1526" />
    <sodipodi:guide
       position="0.97013909,15.963209"
       orientation="56.666615,0"
       id="guide1528"
       inkscape:locked="false" />
    <sodipodi:guide
       position="0.97013909,0.97016731"
       orientation="0,56.666667"
       id="guide1530"
       inkscape:locked="false" />
    <sodipodi:guide
       position="15.963195,0.97016731"
       orientation="-56.666615,0"
       id="guide1532"
       inkscape:locked="false" />
    <sodipodi:guide
       position="15.963195,15.963209"
       orientation="0,-56.666667"
       id="guide1534"
       inkscape:locked="false" />
  </sodipodi:namedview>
  <metadata
     id="metadata976">
    <rdf:RDF>
      <cc:Work
         rdf:about="">
        <dc:format>image/svg+xml</dc:format>
        <dc:type
           rdf:resource="http://purl.org/dc/dcmitype/StillImage" />
      </cc:Work>
    </rdf:RDF>
  </metadata>
  <g
     inkscape:label="Layer 1"
     inkscape:groupmode="layer"
     id="layer1"
     transform="translate(0,-280.06668)">
    <g
       id="g1778"
       transform="matrix(1.2319377,0,0,1.2319377,0.70746237,-67.981761)"
       style="stroke-width:0.811729">
      <g
         id="g413372"
         style="display:inline;stroke-width:0.811729"
         transform="translate(-66.091257,-23.269625)">
        <g
           id="g412938"
           style="stroke-width:0.811729">
          <path
             style="color:#000000;fill:#f5f6e8;stroke-width:0.811729;stroke-linecap:round;stroke-linejoin:round;-inkscape-stroke:none;paint-order:markers fill stroke"
             d="m 70.802734,308.82617 c -0.43219,0 -0.807821,0.30863 -0.892578,0.73242 L 69.75,310.36328 a 0.26460996,0.26460996 0 0 0 0.257812,0.31641 h 4.763672 a 0.26460996,0.26460996 0 0 0 0.259766,-0.31641 l -0.162109,-0.80469 c -0.08476,-0.42379 -0.460388,-0.73242 -0.892579,-0.73242 z"
             id="path352218" />
          <path
             style="color:#000000;fill:#dc1c4b;stroke-width:0.811729;stroke-linecap:round;stroke-linejoin:round;-inkscape-stroke:none;paint-order:markers fill stroke"
             d="m 76.623047,308.82617 c -0.435237,0 -0.792966,0.35968 -0.792969,0.79492 v 0.79297 a 0.26460996,0.26460996 0 0 0 0.263672,0.26563 h 1.324219 a 0.26460996,0.26460996 0 0 0 0.263672,-0.26563 v -0.79297 c -3e-6,-0.43524 -0.357732,-0.79492 -0.792969,-0.79492 z"
             id="path352232" />
          <path
             style="color:#000000;fill:#2bb3cd;stroke-width:0.811729;stroke-linecap:round;stroke-linejoin:round;-inkscape-stroke:none;paint-order:markers fill stroke"
             d="m 67.892578,308.82617 c -0.435236,0 -0.794919,0.35968 -0.794922,0.79492 v 0.79297 a 0.26460996,0.26460996 0 0 0 0.265625,0.26563 h 1.322266 a 0.26460996,0.26460996 0 0 0 0.265625,-0.26563 v -0.79297 c -3e-6,-0.43524 -0.359686,-0.79492 -0.794922,-0.79492 z"
             id="path352312" />
          <path
             id="path355519"
             style="color:#000000;fill:#2276bc;fill-opacity:1;stroke-width:0.811729;stroke-linecap:round;stroke-linejoin:round;-inkscape-stroke:none;paint-order:markers fill stroke"
             d="m 67.892495,308.82615 c -0.354944,0 -0.659302,0.23946 -0.759642,0.56379 0.07308,-0.0225 0.15054,-0.0346 0.230476,-0.0346 h 0.263551 c 0.435234,0 0.795295,0.35954 0.795301,0.79478 v 0.52968 h 0.263548 a 0.26460995,0.26460995 0 0 0 0.265618,-0.26561 v -0.79324 c -5e-6,-0.43524 -0.360066,-0.79478 -0.7953,-0.79478 z" />
          <path
             id="path358490"
             style="color:#000000;fill:#b31e48;fill-opacity:1;stroke-width:0.811729;stroke-linecap:round;stroke-linejoin:round;-inkscape-stroke:none;paint-order:markers fill stroke"
             d="m 76.622789,308.82615 c -0.354944,0 -0.659302,0.23946 -0.759642,0.56379 0.07308,-0.0225 0.15054,-0.0346 0.230476,-0.0346 h 0.263551 c 0.435234,0 0.795295,0.35954 0.795301,0.79478 v 0.52968 h 0.263548 a 0.26460995,0.26460995 0 0 0 0.265618,-0.26561 v -0.79324 c -5e-6,-0.43524 -0.360066,-0.79478 -0.7953,-0.79478 z" />
          <path
             id="path360999"
             style="color:#000000;fill:#cccccc;fill-opacity:1;stroke-width:0.811729;stroke-linecap:round;stroke-linejoin:round;-inkscape-stroke:none;paint-order:markers fill stroke"
             d="m 70.802912,308.82615 c -0.381572,0 -0.719482,0.2406 -0.851628,0.5886 0.100825,-0.0385 0.209802,-0.0594 0.322461,-0.0594 h 3.17345 c 0.432191,0 0.808209,0.30846 0.892968,0.73225 l 0.118857,0.59221 h 0.312642 a 0.26460995,0.26460995 0 0 0 0.259416,-0.31626 l -0.161748,-0.80511 c -0.08476,-0.42379 -0.460777,-0.73226 -0.892969,-0.73226 z" />
        </g>
        <g
           id="g413339"
           style="stroke-width:0.811729">
          <path
             style="color:#000000;fill:#aabfd0;fill-opacity:1;stroke-width:0.811729;stroke-linecap:round;stroke-linejoin:round;-inkscape-stroke:none;paint-order:markers fill stroke"
             d="m 67.363281,311.20898 a 0.26460996,0.26460996 0 0 0 -0.265625,0.26368 v 5.82031 a 0.26460996,0.26460996 0 0 0 0.265625,0.26562 h 10.054688 a 0.26460996,0.26460996 0 0 0 0.263672,-0.26562 v -5.82031 a 0.26460996,0.26460996 0 0 0 -0.263672,-0.26368 z"
             id="path352196" />
          <path
             id="path368403"
             style="color:#000000;fill:#7d8e9e;fill-opacity:1;stroke-width:0.811729;stroke-linecap:round;stroke-linejoin:round;-inkscape-stroke:none;paint-order:markers fill stroke"
             d="m 67.363329,311.20895 c -0.14612,-5.6e-4 -0.265032,0.11743 -0.265616,0.26355 v 1.01035 h 6.858585 c 1.797635,0.0613 2.666931,0.72933 2.666931,2.66957 v 2.40601 h 0.794785 c 0.146117,-5.8e-4 0.264102,-0.11949 0.263549,-0.26561 v -5.82032 c -5.81e-4,-0.14531 -0.118236,-0.26297 -0.263549,-0.26355 z"
             sodipodi:nodetypes="ccccccccccc" />
          <path
             style="color:#000000;fill:#626d7a;fill-opacity:1;stroke-width:0.811729;stroke-linecap:round;stroke-linejoin:round;-inkscape-stroke:none;paint-order:markers fill stroke"
             d="m 67.097656,317.0293 c -0.288578,0 -0.529297,0.24072 -0.529297,0.52929 v 0.5293 c 0,0.28858 0.240719,0.5293 0.529297,0.5293 h 10.583985 c 0.288578,0 0.529297,-0.24072 0.529296,-0.5293 v -0.5293 c 0,-0.28857 -0.240718,-0.52929 -0.529296,-0.52929 z"
             id="path352210" />
          <path
             style="color:#000000;fill:#626d7a;fill-opacity:1;stroke-width:0.811729;stroke-linecap:round;stroke-linejoin:round;-inkscape-stroke:none;paint-order:markers fill stroke"
             d="m 67.097656,310.15039 c -0.288578,0 -0.529297,0.24072 -0.529297,0.5293 v 0.52929 c 0,0.28858 0.240719,0.52735 0.529297,0.52735 h 10.583985 c 0.288578,0 0.529297,-0.23877 0.529296,-0.52735 v -0.52929 c 0,-0.28858 -0.240718,-0.5293 -0.529296,-0.5293 z"
             id="path352320" />
          <path
             id="path365983"
             style="color:#000000;fill:#555f6a;fill-opacity:1;stroke-width:0.811729;stroke-linecap:round;stroke-linejoin:round;-inkscape-stroke:none;paint-order:markers fill stroke"
             d="m 67.097713,310.15062 c -0.288578,0 -0.529166,0.24058 -0.529166,0.52916 h 10.583849 c 0.288578,0 0.529167,0.24059 0.529167,0.52917 v 0.52762 c 0.288578,0 0.529166,-0.23904 0.529166,-0.52762 v -0.52917 c 0,-0.28858 -0.240588,-0.52916 -0.529166,-0.52916 z" />
          <g
             id="g413318"
             style="stroke-width:0.811729">
            <path
               style="color:#000000;fill:#50b86b;stroke-width:0.811729;stroke-linecap:round;stroke-linejoin:round;-inkscape-stroke:none;paint-order:markers fill stroke"
               d="m 73.650076,312.63165 c 0,0 -0.165164,-0.0155 -0.36428,0.004 -0.199114,0.0192 -0.453578,0.0597 -0.650894,0.25703 -0.197313,0.19731 -0.286492,0.47151 -0.369827,0.71932 -0.08333,0.2478 -0.133138,0.46228 -0.133138,0.46228 a 0.25052062,0.25052062 0 0 0 0.30141,0.30141 c 0,0 0.21448,-0.0498 0.462283,-0.13315 0.247803,-0.0833 0.522001,-0.17249 0.719313,-0.36982 0.197312,-0.1973 0.237831,-0.45178 0.257029,-0.65089 0.0192,-0.19911 0.0037,-0.36429 0.0037,-0.36429 a 0.25052062,0.25052062 0 0 0 -0.225594,-0.22559 z"
               id="path352278" />
            <path
               style="color:#000000;fill:#50b86b;stroke-width:0.811729;stroke-linecap:round;stroke-linejoin:round;-inkscape-stroke:none;paint-order:markers fill stroke"
               d="m 71.04742,312.5332 a 0.26460945,0.26460945 0 0 0 -0.238282,0.23828 c 0,0 -0.01637,0.17446 0.0039,0.38477 0.02028,0.21031 0.06307,0.4791 0.271484,0.6875 0.208408,0.20843 0.498027,0.3026 0.759766,0.39062 0.261739,0.088 0.488281,0.14063 0.488281,0.14063 a 0.26460945,0.26460945 0 0 0 0.318359,-0.31836 c 0,0 -0.0526,-0.22654 -0.140625,-0.48828 -0.08802,-0.26174 -0.182215,-0.55136 -0.390625,-0.75977 -0.208412,-0.2084 -0.477187,-0.25121 -0.6875,-0.27148 -0.210312,-0.0203 -0.384765,-0.004 -0.384765,-0.004 z"
               id="path352270" />
            <path
               style="color:#000000;fill:#50b86b;stroke-width:0.811729;stroke-linecap:round;stroke-linejoin:round;-inkscape-stroke:none;paint-order:markers fill stroke"
               d="m 70.496094,314.36523 a 0.26460996,0.26460996 0 0 0 -0.238282,0.23829 c 0,0 -0.02174,0.23716 0.0059,0.52343 0.0276,0.28627 0.09009,0.64282 0.351562,0.9043 0.261476,0.26148 0.668057,0.40455 1.033203,0.52734 0.365147,0.1228 0.683594,0.19922 0.683594,0.19922 a 0.26460996,0.26460996 0 0 0 0.31836,-0.32031 c 0,0 -0.07642,-0.31649 -0.199219,-0.68164 -0.122798,-0.36515 -0.263914,-0.77173 -0.525391,-1.0332 -0.261476,-0.26148 -0.619981,-0.32396 -0.90625,-0.35157 -0.286268,-0.0276 -0.523437,-0.006 -0.523437,-0.006 z"
               id="path352286" />
            <path
               style="color:#000000;fill:#50b86b;stroke-width:0.811729;stroke-linecap:round;stroke-linejoin:round;-inkscape-stroke:none;paint-order:markers fill stroke"
               d="m 74.285156,314.36523 c 0,0 -0.235216,-0.0217 -0.521484,0.006 -0.286269,0.0276 -0.644773,0.0901 -0.90625,0.35157 -0.261477,0.26147 -0.404546,0.66805 -0.527344,1.0332 -0.122798,0.36515 -0.197266,0.68164 -0.197266,0.68164 a 0.26460996,0.26460996 0 0 0 0.31836,0.32031 c 0,0 0.318447,-0.0764 0.683594,-0.19922 0.365146,-0.12279 0.771727,-0.26586 1.033203,-0.52734 0.261477,-0.26148 0.323962,-0.61803 0.351562,-0.9043 0.0276,-0.28627 0.0039,-0.52343 0.0039,-0.52343 a 0.26460996,0.26460996 0 0 0 -0.238281,-0.23829 z"
               id="path352262" />
            <path
               id="path384839"
               style="color:#000000;fill:#388b4e;fill-opacity:1;stroke-width:0.811729;stroke-linecap:round;stroke-linejoin:round;-inkscape-stroke:none;paint-order:markers fill stroke"
               d="m 74.054346,314.35708 c -0.0787,2.3e-4 -0.172696,0.003 -0.273367,0.0124 a 0.26460995,0.26460995 0 0 1 0.213423,0.2341 c 0,0 0.02347,0.23721 -0.0041,0.52348 -0.0276,0.28627 -0.08992,0.64286 -0.351401,0.90434 -0.261474,0.26148 -0.668382,0.40431 -1.033528,0.5271 -0.149865,0.0504 -0.290314,0.0924 -0.405659,0.12505 a 0.26460995,0.26460995 0 0 0 0.251663,0.0744 c 0,0 0.318016,-0.0766 0.683162,-0.19947 0.365147,-0.12279 0.772055,-0.26562 1.033529,-0.5271 0.261477,-0.26148 0.3238,-0.61807 0.351401,-0.90434 0.0276,-0.28627 0.0041,-0.52348 0.0041,-0.52348 a 0.26460995,0.26460995 0 0 0 -0.238228,-0.23823 c 0,0 -0.09219,-0.009 -0.230995,-0.008 z" />
            <path
               id="path400795"
               style="color:#000000;fill:#388b4e;fill-opacity:1;stroke-width:0.811729;stroke-linecap:round;stroke-linejoin:round;-inkscape-stroke:none;paint-order:markers fill stroke"
               d="m 71.217874,312.5267 c -0.102454,-1.8e-4 -0.170532,0.006 -0.170532,0.006 v 5.2e-4 a 0.26460944,0.26460944 0 0 0 -0.238228,0.23823 c 0,0 -0.01151,0.12334 -0.0031,0.28784 0.03113,0.002 0.06365,0.003 0.09715,0.007 0.210312,0.0203 0.478885,0.0634 0.687294,0.27182 0.208413,0.20841 0.302655,0.4979 0.390676,0.75964 0.02372,0.0705 0.04429,0.1378 0.06253,0.19947 0.16723,0.0495 0.28887,0.078 0.28887,0.078 a 0.26460944,0.26460944 0 0 0 0.318328,-0.31833 c 0,0 -0.05254,-0.2266 -0.14056,-0.48834 -0.08802,-0.26174 -0.182264,-0.55175 -0.390676,-0.76016 -0.20841,-0.2084 -0.476983,-0.25103 -0.687295,-0.2713 -0.07887,-0.008 -0.152985,-0.0102 -0.214458,-0.0103 z" />
            <path
               id="path400797"
               style="color:#000000;fill:#388b4e;fill-opacity:1;stroke-width:0.811729;stroke-linecap:round;stroke-linejoin:round;-inkscape-stroke:none;paint-order:markers fill stroke"
               d="m 70.687676,314.35708 c -0.116613,10e-4 -0.19172,0.008 -0.19172,0.008 a 0.26460995,0.26460995 0 0 0 -0.238228,0.23823 c 0,0 -0.01079,0.11576 -0.0078,0.28318 0.07229,0.001 0.153885,0.005 0.240295,0.0134 0.286269,0.0276 0.64493,0.0899 0.906404,0.3514 0.261477,0.26147 0.402752,0.66838 0.52555,1.03353 0.0491,0.146 0.09012,0.28303 0.122473,0.39636 0.171027,0.0487 0.287322,0.0765 0.287322,0.0765 a 0.26460995,0.26460995 0 0 0 0.318325,-0.3204 c 0,0 -0.07615,-0.31646 -0.198953,-0.68161 -0.122799,-0.36515 -0.264073,-0.77206 -0.52555,-1.03353 -0.261475,-0.26148 -0.620136,-0.32379 -0.906404,-0.3514 -0.125241,-0.0121 -0.241065,-0.0148 -0.331761,-0.014 z" />
          </g>
          <path
             id="path368038"
             style="color:#000000;fill:#555f6a;fill-opacity:1;stroke-width:0.811729;stroke-linecap:round;stroke-linejoin:round;-inkscape-stroke:none;paint-order:markers fill stroke"
             d="m 67.097713,317.0293 c -0.288578,0 -0.529166,0.24058 -0.529166,0.52916 h 10.583849 c 0.288578,0 0.529167,0.24059 0.529167,0.52917 v 0.52762 c 0.288578,0 0.529166,-0.23904 0.529166,-0.52762 v -0.52917 c 0,-0.28858 -0.240588,-0.52916 -0.529166,-0.52916 z" />
        </g>
      </g>
      <path
         id="rect28091"
         style="color:#000000;display:inline;fill:#000000;stroke-width:0.811729;stroke-linecap:round;stroke-linejoin:round;-inkscape-stroke:none;paint-order:markers fill stroke"
         d="m 6.284169,283.44037 a 0.26460995,0.26460995 0 0 0 -0.205671,0.11834 l -0.529167,0.79272 a 0.26460995,0.26460995 0 0 0 0.220657,0.41237 H 6.03354 v 0.26355 a 0.26460995,0.26460995 0 0 0 0.484724,0.14832 l 0.529167,-0.79479 A 0.26460995,0.26460995 0 0 0 6.82884,283.97057 H 6.563222 v -0.26562 a 0.26460995,0.26460995 0 0 0 -0.187587,-0.25373 0.26460995,0.26460995 0 0 0 -0.09147,-0.0109 z m -5.012097,0.79375 c -0.581735,0 -1.05885,0.47711 -1.05885,1.05885 0,0.49027 0.339027,0.9056 0.79375,1.02423 -5.29e-4,0.0114 -5.29e-4,0.0226 -5.29e-4,0.0341 v 0.52969 c -0.288578,0 -0.529167,0.24058 -0.529167,0.52916 v 0.52917 c 0,0.28859 0.240589,0.52762 0.529167,0.52762 v 5.29271 c -0.288578,0 -0.529167,0.24059 -0.529167,0.52916 v 0.52969 c 0,0.28858 0.240589,0.52916 0.529167,0.52916 h 10.583849 c 0.288579,0 0.529167,-0.24059 0.529167,-0.52916 v -0.52969 c 0,-0.28857 -0.240588,-0.52916 -0.529167,-0.52916 v -5.29271 c 0.288579,0 0.529167,-0.23903 0.529167,-0.52762 v -0.52917 c 0,-0.28858 -0.240588,-0.52916 -0.529167,-0.52916 v -0.52969 c 0,-0.0113 -3.7e-5,-0.0224 -5.29e-4,-0.0336 0,0 5.29e-4,0 5.29e-4,0 0.455086,-0.11807 0.793234,-0.53391 0.793234,-1.02475 0,-0.58174 -0.475048,-1.05885 -1.056783,-1.05885 H 7.885104 c -0.145412,5e-4 -0.263048,0.11866 -0.263548,0.26407 -5.3e-4,0.14617 0.117374,0.26511 0.263548,0.26561 h 3.441653 c 0.297725,0 0.527097,0.23142 0.527097,0.52917 0,0.27824 -0.200509,0.49838 -0.469738,0.52607 0,0 -5.29e-4,-5.3e-4 -5.29e-4,-5.3e-4 -0.145458,-0.16043 -0.354791,-0.262 -0.58601,-0.262 h -0.265618 c -0.43524,0 -0.793231,0.35955 -0.793234,0.79478 v 0.52969 H 8.896916 L 8.77806,286.28874 C 8.6933,285.86495 8.317283,285.55649 7.885091,285.55649 H 4.711642 c -0.432189,0 -0.80821,0.30846 -0.892969,0.73225 l -0.117822,0.59222 H 2.860077 v -0.52969 c -5e-6,-0.43523 -0.360064,-0.79478 -0.795301,-0.79478 H 1.801225 c -0.231219,0 -0.441587,0.10209 -0.58756,0.26252 -0.269166,-0.028 -0.470773,-0.24803 -0.470773,-0.52607 0,-0.29775 0.231441,-0.52917 0.529166,-0.52917 h 3.439584 c 0.146174,-5e-4 0.264125,-0.11944 0.263551,-0.26561 -5.29e-4,-0.14541 -0.118136,-0.26357 -0.263551,-0.26407 z m 0.529166,1.85157 H 2.06479 c 0.149254,0 0.265615,0.11636 0.265615,0.26561 v 0.52969 H 1.535623 v -0.52969 c 0,-0.14925 0.116361,-0.26561 0.265615,-0.26561 z m 2.910417,0 h 3.173449 c 0.183187,0 0.339246,0.12733 0.375172,0.30696 l 0.09715,0.48834 H 4.239848 l 0.0987,-0.48834 c 0.03593,-0.17963 0.189918,-0.30696 0.373102,-0.30696 z m 5.820317,0 h 0.265618 c 0.149254,0 0.263549,0.11636 0.263549,0.26561 v 0.52969 h -0.793234 v -0.52969 c 2e-6,-0.14925 0.11481,-0.26561 0.264067,-0.26561 z m -9.525516,1.32446 h 10.58385 v 0.52917 H 1.006456 Z m 0.529167,1.05679 h 9.525516 v 5.2927 H 6.563222 v -0.32453 c 0.12541,-0.0345 0.296654,-0.0846 0.480073,-0.14624 0.365147,-0.12279 0.772055,-0.26562 1.033529,-0.5271 0.261477,-0.26148 0.3238,-0.61807 0.351401,-0.90434 0.0276,-0.28627 0.0041,-0.52348 0.0041,-0.52348 a 0.26460995,0.26460995 0 0 0 -0.238229,-0.23823 c 0,0 -0.235664,-0.022 -0.52193,0.006 -0.286271,0.0276 -0.644411,0.0904 -0.905888,0.35191 -0.07668,0.0767 -0.143264,0.16558 -0.202055,0.26252 l 5.3e-4,-0.68265 c 0.06675,-0.0195 0.141007,-0.0419 0.219106,-0.0682 0.261739,-0.088 0.551236,-0.18224 0.759646,-0.39067 0.208409,-0.2084 0.251023,-0.47751 0.271301,-0.68782 0.02027,-0.21031 0.0041,-0.38447 0.0041,-0.38447 a 0.26460944,0.26460944 0 0 0 -0.238228,-0.23823 c 0,0 -0.174675,-0.0168 -0.38499,0.004 -0.210312,0.0203 -0.478883,0.0634 -0.687295,0.27182 -0.105307,0.10531 -0.18144,0.2311 -0.242363,0.3638 -0.06091,-0.13264 -0.137097,-0.25905 -0.242361,-0.36431 -0.208413,-0.20841 -0.476986,-0.25104 -0.687298,-0.27131 -0.210312,-0.0203 -0.384471,-0.004 -0.384471,-0.004 v 5.3e-4 a 0.26460944,0.26460944 0 0 0 -0.238747,0.23823 c 0,0 -0.01614,0.17416 0.0041,0.38447 0.02029,0.21031 0.06289,0.47941 0.271302,0.68781 0.208407,0.20843 0.498419,0.30266 0.760158,0.39068 0.105804,0.0356 0.204629,0.0645 0.28629,0.0873 l -5.29e-4,0.66146 c -0.05823,-0.0961 -0.123884,-0.18487 -0.199988,-0.26097 -0.261475,-0.26148 -0.620136,-0.32379 -0.906405,-0.3514 -0.286268,-0.0276 -0.52348,-0.006 -0.52348,-0.006 a 0.26460995,0.26460995 0 0 0 -0.238229,0.23823 c 0,0 -0.02143,0.23721 0.0062,0.52349 0.0276,0.28626 0.08993,0.64285 0.351401,0.90433 0.261474,0.26148 0.667866,0.40431 1.033012,0.5271 0.181444,0.061 0.351415,0.11078 0.476457,0.14521 v 0.32556 H 1.535525 Z m 0.794782,0.26561 a 0.26458349,0.26458349 0 0 0 -0.265615,0.26356 0.26458349,0.26458349 0 0 0 -0.263552,0.26561 0.26458349,0.26458349 0 0 0 0.263552,0.26355 0.26458349,0.26458349 0 0 0 0.265615,0.26562 0.26458349,0.26458349 0 0 0 0.264067,-0.26562 0.26458349,0.26458349 0 0 0 0.265618,-0.26355 0.26458349,0.26458349 0 0 0 -0.265618,-0.26561 0.26458349,0.26458349 0 0 0 -0.264067,-0.26356 z m 7.671885,0.26356 a 0.26458349,0.26458349 0 0 0 -0.263552,0.26561 0.26458349,0.26458349 0 0 0 0.263552,0.26355 h 0.529682 a 0.26458349,0.26458349 0 0 0 0.265618,-0.26355 0.26458349,0.26458349 0 0 0 -0.265618,-0.26561 z m -4.729946,0.79581 c 0.0034,2e-5 0.0075,5.3e-4 0.01344,10e-4 0.155405,0.015 0.31619,0.0717 0.363286,0.11886 0.04643,0.0464 0.180059,0.3135 0.259932,0.54725 -0.233741,-0.0799 -0.500825,-0.2135 -0.547254,-0.25993 -0.0471,-0.0471 -0.10387,-0.20789 -0.118853,-0.36329 -0.0024,-0.0236 0.0013,-0.0209 0,-0.0429 0.01646,7.9e-4 0.01921,-0.001 0.02945,-0.001 z m 1.987994,0 c 0.01024,-5e-5 0.01299,0.002 0.02945,10e-4 -0.0013,0.022 0.0024,0.0193 0,0.0429 -0.01498,0.1554 -0.07227,0.31619 -0.119372,0.36329 -0.04643,0.0464 -0.312994,0.18005 -0.546738,0.25993 0.07987,-0.23375 0.21299,-0.50082 0.259416,-0.54725 0.0471,-0.0471 0.207881,-0.10388 0.363286,-0.11886 0.0059,-5.3e-4 0.01053,-0.001 0.01394,-0.001 z m -2.483569,1.82986 c 0.02389,-7.9e-4 0.05096,1.7e-4 0.100769,0.005 0.23136,0.0223 0.481708,0.0988 0.581874,0.19896 0.100166,0.10017 0.284232,0.4888 0.398426,0.82837 0.03363,0.1 0.02935,0.10147 0.05478,0.18759 -0.08549,-0.0253 -0.08647,-0.0215 -0.185517,-0.0548 -0.339567,-0.1142 -0.728208,-0.29825 -0.828374,-0.39843 -0.100168,-0.10016 -0.178713,-0.35051 -0.20102,-0.58187 -0.0096,-0.0996 -0.0027,-0.10934 -0.0021,-0.1819 0.03628,-2.7e-4 0.05724,-0.002 0.08113,-0.003 z m 3.027722,0 c 0.03303,-9e-5 0.05306,0.003 0.09818,0.003 5.3e-4,0.0726 0.008,0.0823 -0.0016,0.1819 -0.02231,0.23136 -0.0993,0.48171 -0.199472,0.58188 -0.100163,0.10017 -0.488289,0.28422 -0.827855,0.39842 -0.100005,0.0336 -0.101465,0.0294 -0.187587,0.0548 0.02543,-0.0861 0.02064,-0.0876 0.05426,-0.18759 0.114197,-0.33957 0.300328,-0.7282 0.400492,-0.82837 0.100168,-0.10016 0.351033,-0.17664 0.582395,-0.19895 0.03695,-0.004 0.06132,-0.005 0.08113,-0.005 z m -6.798035,2.66702 h 10.58385 v 0.52969 H 1.006456 Z" />
    </g>
  </g>
</svg>
